<?xml version="1.0" encoding="utf-8"?>
<!-- Generator: Adobe Illustrator 15.0.0, SVG Export Plug-In . SVG Version: 6.00 Build 0)  -->
<!DOCTYPE svg PUBLIC "-//W3C//DTD SVG 1.1//EN" "http://www.w3.org/Graphics/SVG/1.1/DTD/svg11.dtd">
<svg version="1.1" id="Layer_1" xmlns="http://www.w3.org/2000/svg" xmlns:xlink="http://www.w3.org/1999/xlink" x="0px" y="0px"
	 width="173px" height="42px" viewBox="0 0 173 42" enable-background="new 0 0 173 42" xml:space="preserve">
<path id="path2386_1_" fill="#E7E623" d="M13.769,38.795c8.676,0,22.882-6.671,22.882-18.639c0-5.206-3.923-9.463-9.627-9.463
	c-6.633,0-14.15,7.158-14.15,7.158s2.233-0.959,5.905-0.959c0,0,7.439-0.329,7.439,6.628C26.216,32.192,15.695,38.278,13.769,38.795
	z"/>
<path id="path2388_1_" fill="#CBCED1" d="M12.382,18.147c-1.37,0.397-8.53,3.529-8.53,6.929c0,3.182,6.605,7.087,20.911,7.087
	c14.374,0,20.911-3.929,20.911-7.038c0-3.621-7.484-5.543-7.484-5.543s1.703,1.043,1.703,2.454c0,5.261-17.371,5.707-17.371,5.707
	c-0.671,0-14.593,0.401-14.593-4.307C7.929,21.406,12.382,18.147,12.382,18.147z"/>
<path id="path2384_3_" fill="#5E9F46" d="M33.308,8.624c0,3.149-2.57,5.701-5.742,5.701c-3.17,0-5.741-2.552-5.741-5.701
	c0-3.149,2.57-5.701,5.741-5.701C30.738,2.923,33.308,5.475,33.308,8.624z"/>
<path id="path2384_2_" fill="#CBCED1" d="M31.791,8.624c0,2.275-1.892,4.12-4.226,4.12c-2.333,0-4.224-1.844-4.224-4.12
	c0-2.274,1.891-4.119,4.224-4.119C29.898,4.505,31.791,6.35,31.791,8.624z"/>
<text transform="matrix(0.8549 0 0 1 47.9351 28.7705)"><tspan x="0" y="0" fill="#CBCED1" font-family="'TrajanPro-Regular'" font-size="27.5078">infomap</tspan><tspan x="129.258" y="0" fill="#E7E625" font-family="'MyriadPro-Bold'" font-size="11.5973">24</tspan></text>
</svg>
